<?xml version="1.0" encoding="UTF-8"?>
<svg version="1.1" xmlns="http://www.w3.org/2000/svg" width="512" height="309">
<path d="M0 0 C1.14339844 -0.01933594 2.28679687 -0.03867187 3.46484375 -0.05859375 C13.66998654 1.34863007 19.85102747 8.65370091 26.75512695 15.61254883 C27.91316178 16.7651569 29.07204438 17.91691375 30.23170471 19.06788635 C33.36468007 22.18269348 36.484951 25.30993954 39.60248971 28.44018769 C42.87288856 31.72074545 46.15307203 34.99149654 49.4316864 38.26383972 C54.93375871 43.75864509 60.42736654 49.2618073 65.91625977 54.76977539 C72.25609675 61.13138998 78.61022951 67.47845202 84.97195846 73.81816846 C90.44192948 79.26997133 95.90404661 84.72955093 101.35970849 90.19567317 C104.61459423 93.45678461 107.87209756 96.71515786 111.13671303 99.96653175 C114.20497309 103.02321309 117.26323694 106.08956033 120.31415367 109.16354942 C121.43337034 110.28804184 122.5559803 111.40916889 123.68225098 112.52659607 C125.22290925 114.05627095 126.75063867 115.59782608 128.27583313 117.14289856 C129.13284978 118.00142331 129.98986643 118.85994806 130.87285328 119.74448872 C136.67009939 126.87442846 136.95933683 134.53098251 136.0625 143.4375 C134.36507912 150.09907627 129.60710397 154.61719559 124.0625 158.4375 C120.08477325 160.43971145 116.68222943 160.76363308 112.25 160.8125 C111.08855469 160.84085938 109.92710937 160.86921875 108.73046875 160.8984375 C99.30238095 159.71365117 93.71906689 153.65371715 87.34179688 147.17089844 C86.39567631 146.22364767 85.44867029 145.2772806 84.50085449 144.33172607 C81.94692347 141.77893638 79.40546072 139.21405903 76.86615562 136.64673138 C74.20415922 133.95962379 71.53072826 131.28394072 68.85852051 128.60699463 C63.80747907 123.54355187 58.76671557 118.47000539 53.72961855 113.39269471 C47.99142414 107.60969386 42.2417825 101.83813164 36.49117947 96.06747389 C24.66888962 84.20344419 12.86096554 72.32522365 1.0625 60.4375 C-2.263716 61.88567932 -4.43337658 63.69374226 -6.97798157 66.26438904 C-7.77270874 67.06214752 -8.56743591 67.85990601 -9.38624573 68.68183899 C-10.24918747 69.55825546 -11.11212921 70.43467194 -12.0012207 71.33764648 C-13.40720309 72.75304341 -14.81318767 74.16843816 -16.21925485 75.58375084 C-17.72804492 77.10430665 -19.23436433 78.62727319 -20.74007607 80.150877 C-23.88222784 83.32966121 -27.03310288 86.49970049 -30.18559265 89.66822815 C-39.14811128 98.6790122 -48.09884635 107.7014471 -57.04077148 116.73266602 C-61.98091407 121.7219855 -66.92828113 126.70402832 -71.88343114 131.67844445 C-75.01587782 134.82394362 -78.13911122 137.97822481 -81.25574267 141.13939083 C-83.65760676 143.5703219 -86.07260011 145.98807824 -88.4855957 148.40795898 C-89.77089928 149.71954735 -89.77089928 149.71954735 -91.08216858 151.05763245 C-97.56451219 157.51892474 -102.41623203 160.86436022 -111.875 160.875 C-119.11803756 160.68318227 -123.64346949 159.57436007 -128.90234375 154.56640625 C-134.15136563 148.88801653 -136.22604473 144.46649273 -136.3125 136.625 C-136.34085937 135.46355469 -136.36921875 134.30210937 -136.3984375 133.10546875 C-135.11050347 122.85657 -127.72788331 116.65550496 -120.76245117 109.74487305 C-119.6098431 108.58683822 -118.45808625 107.42795562 -117.30711365 106.26829529 C-114.19230652 103.13531993 -111.06506046 100.015049 -107.93481231 96.89751029 C-104.65425455 93.62711144 -101.38350346 90.34692797 -98.11116028 87.0683136 C-92.61635491 81.56624129 -87.1131927 76.07263346 -81.60522461 70.58374023 C-75.24361002 64.24390325 -68.89654798 57.88977049 -62.55683154 51.52804154 C-57.10502867 46.05807052 -51.64544907 40.59595339 -46.17932683 35.14029151 C-42.91821539 31.88540577 -39.65984214 28.62790244 -36.40846825 25.36328697 C-33.35178691 22.29502691 -30.28543967 19.23676306 -27.21145058 16.18584633 C-26.08695816 15.06662966 -24.96583111 13.9440197 -23.84840393 12.81774902 C-22.31872905 11.27709075 -20.77717392 9.74936133 -19.23210144 8.22416687 C-17.94431431 6.9386419 -17.94431431 6.9386419 -16.63051128 5.62714672 C-11.55945598 1.50394839 -6.56921623 0.00738944 0 0 Z " fill="#000000" transform="translate(255.9375,38.5625)"/>
</svg>
