<svg width="48" height="48" viewBox="0 0 48 48" fill="none" xmlns="http://www.w3.org/2000/svg">
<path d="M24 0.5C36.9787 0.5 47.5 11.0213 47.5 24C47.5 36.9787 36.9787 47.5 24 47.5C11.0213 47.5 0.5 36.9787 0.5 24C0.5 11.0213 11.0213 0.5 24 0.5Z" fill="#151515" stroke="#EFBC33"/>
<path fill-rule="evenodd" clip-rule="evenodd" d="M34.666 33.3327H13.3327C11.8593 33.3327 10.666 32.1393 10.666 30.666V17.3327C10.666 15.8593 11.8593 14.666 13.3327 14.666H34.666C36.1393 14.666 37.3327 15.8593 37.3327 17.3327V30.666C37.3327 32.1393 36.1393 33.3327 34.666 33.3327Z" stroke="#EFBC33" stroke-width="1.5" stroke-linecap="round" stroke-linejoin="round"/>
<path d="M14.666 29.3327H15.9993" stroke="#EFBC33" stroke-width="1.5" stroke-linecap="round" stroke-linejoin="round"/>
<path d="M32 18.6667H33.3333" stroke="#EFBC33" stroke-width="1.5" stroke-linecap="round" stroke-linejoin="round"/>
<path fill-rule="evenodd" clip-rule="evenodd" d="M25.79 27.4994H22.842C22.1927 27.4994 21.666 26.9727 21.666 26.3234V24.0527H25.79C26.734 24.0527 27.4993 24.8181 27.4993 25.7621V25.7887C27.4993 26.7341 26.734 27.4994 25.79 27.4994Z" stroke="#EFBC33" stroke-width="1.5" stroke-linecap="round" stroke-linejoin="round"/>
<path fill-rule="evenodd" clip-rule="evenodd" d="M25.3753 24.0533H21.666V21.6933C21.666 21.0333 22.2007 20.5 22.8593 20.5H25.374C26.3327 20.5 27.11 21.2773 27.11 22.236V22.3173C27.1113 23.276 26.334 24.0533 25.3753 24.0533V24.0533Z" stroke="#EFBC33" stroke-width="1.5" stroke-linecap="round" stroke-linejoin="round"/>
<path d="M24.0007 19.3339V20.5072" stroke="#EFBC33" stroke-width="1.5" stroke-linecap="round" stroke-linejoin="round"/>
<path d="M24.0007 28.6674V27.4941" stroke="#EFBC33" stroke-width="1.5" stroke-linecap="round" stroke-linejoin="round"/>
<path d="M23.9992 20.5065H20.5059" stroke="#EFBC33" stroke-width="1.5" stroke-linecap="round" stroke-linejoin="round"/>
<path d="M23.9992 27.4928H20.5059" stroke="#EFBC33" stroke-width="1.5" stroke-linecap="round" stroke-linejoin="round"/>
</svg>
