<svg xmlns="http://www.w3.org/2000/svg" width="48" height="48" fill="none"><path fill="#151515" stroke="#EFBC33" d="M24 .5C36.979.5 47.5 11.021 47.5 24S36.979 47.5 24 47.5.5 36.979.5 24 11.021.5 24 .5Z"/><path stroke="#EFBC33" stroke-linecap="round" stroke-linejoin="round" stroke-width="1.5" d="M34.405 32.285a23 23 0 0 0-10.089.24l-.316.08a24.45 24.45 0 0 1-10.724.255l-.204-.041A1.33 1.33 0 0 1 12 31.512V17.06c0-.841.77-1.472 1.595-1.308v0c3.34.668 6.785.585 10.089-.24l.63-.158a23 23 0 0 1 10.09-.24l.523.104A1.33 1.33 0 0 1 36 16.527V30.98c0 .84-.77 1.471-1.595 1.306" clip-rule="evenodd"/><path stroke="#EFBC33" stroke-linecap="round" stroke-linejoin="round" stroke-width="1.5" d="M24 20.5v-1.167M24 27.5v1.166M21.977 26.666c.303.495.819.837 1.442.837h1.278c.906 0 1.638-.733 1.638-1.637 0-.752-.512-1.407-1.24-1.59l-2.187-.55a1.64 1.64 0 0 1-1.24-1.59c0-.906.733-1.638 1.637-1.638h1.279c.623 0 1.137.34 1.44.833"/></svg>