<svg xmlns="http://www.w3.org/2000/svg" width="48" height="48" fill="none"><path fill="#151515" stroke="#EFBC33" d="M24 .5C36.979.5 47.5 11.021 47.5 24S36.979 47.5 24 47.5.5 36.979.5 24 11.021.5 24 .5Z"/><path stroke="#EFBC33" stroke-linecap="round" stroke-linejoin="round" stroke-width="1.5" d="M34.666 33.333H13.333a2.666 2.666 0 0 1-2.667-2.667V17.333a2.666 2.666 0 0 1 2.667-2.667h21.333a2.666 2.666 0 0 1 2.667 2.667v13.333a2.666 2.666 0 0 1-2.667 2.667" clip-rule="evenodd"/><path stroke="#EFBC33" stroke-linecap="round" stroke-linejoin="round" stroke-width="1.5" d="M14.666 29.333h1.333M32 18.667h1.333"/><path stroke="#EFBC33" stroke-linecap="round" stroke-linejoin="round" stroke-width="1.5" d="M25.79 27.5h-2.948c-.65 0-1.176-.527-1.176-1.177v-2.27h4.124c.944 0 1.71.765 1.71 1.71v.026a1.71 1.71 0 0 1-1.71 1.71" clip-rule="evenodd"/><path stroke="#EFBC33" stroke-linecap="round" stroke-linejoin="round" stroke-width="1.5" d="M25.375 24.053h-3.709v-2.36c0-.66.535-1.193 1.193-1.193h2.515c.959 0 1.736.777 1.736 1.736v.081a1.734 1.734 0 0 1-1.735 1.736" clip-rule="evenodd"/><path stroke="#EFBC33" stroke-linecap="round" stroke-linejoin="round" stroke-width="1.5" d="M24 19.334v1.173M24 28.667v-1.173M24 20.507h-3.494M24 27.493h-3.494"/></svg>