<svg width="48" height="48" viewBox="0 0 48 48" fill="none" xmlns="http://www.w3.org/2000/svg">
<path d="M24 0.5C36.9787 0.5 47.5 11.0213 47.5 24C47.5 36.9787 36.9787 47.5 24 47.5C11.0213 47.5 0.5 36.9787 0.5 24C0.5 11.0213 11.0213 0.5 24 0.5Z" fill="#151515" stroke="#EFBC33"/>
<path fill-rule="evenodd" clip-rule="evenodd" d="M33.3333 36.0006H14.6667C13.1933 36.0006 12 34.8073 12 33.334V20.0007C12 18.5273 13.1933 17.334 14.6667 17.334H33.3333C34.8067 17.334 36 18.5273 36 20.0007V33.334C36 34.8073 34.8067 36.0006 33.3333 36.0006Z" stroke="#EFBC33" stroke-width="1.5" stroke-linecap="round" stroke-linejoin="round"/>
<path d="M36.0007 24H31.226C30.1807 24 29.334 24.8467 29.334 25.892V27.4413C29.334 28.4867 30.1807 29.3333 31.226 29.3333H36.0007" stroke="#EFBC33" stroke-width="1.5" stroke-linecap="round" stroke-linejoin="round"/>
<path d="M26 17.3337L26.5 12.5003C26.5 12.5003 27.0893 12.4217 27.6093 12.943L32 17.3337" stroke="#EFBC33" stroke-width="1.5" stroke-linecap="round" stroke-linejoin="round"/>
<path d="M26.6667 17.3324L22.276 12.9418C21.7547 12.4204 20.9107 12.4204 20.3907 12.9418L16 17.3324" stroke="#EFBC33" stroke-width="1.5" stroke-linecap="round" stroke-linejoin="round"/>
</svg>
