<svg xmlns="http://www.w3.org/2000/svg" width="48" height="48" fill="none"><path fill="#151515" stroke="#EFBC33" d="M24 .5C36.979.5 47.5 11.021 47.5 24S36.979 47.5 24 47.5.5 36.979.5 24 11.021.5 24 .5Z"/><path stroke="#EFBC33" stroke-linecap="round" stroke-linejoin="round" stroke-width="1.5" d="M34.667 18.667v-4A2.667 2.667 0 0 0 32 12H14.667A2.667 2.667 0 0 0 12 14.667v18.666A2.667 2.667 0 0 0 14.667 36h6.666M17.334 18.667h6.667M17.334 24h4M17.334 29.333h1.333"/><path stroke="#EFBC33" stroke-linecap="round" stroke-linejoin="round" stroke-width="1.5" d="m28 29.334-.78-.781a1.886 1.886 0 0 0-2.668 0v0a1.886 1.886 0 0 0-.235 2.38l2.586 3.88a2.67 2.67 0 0 0 2.22 1.188h5.06a2.667 2.667 0 0 0 2.647-2.336l.483-3.863a2.667 2.667 0 0 0-2.217-2.962L32 26.335v-3.001a2 2 0 0 0-2-2v0a2 2 0 0 0-2 2z" clip-rule="evenodd"/></svg>