<svg xmlns="http://www.w3.org/2000/svg" width="48" height="48" fill="none"><path fill="#151515" stroke="#EFBC33" d="M24 .5C36.979.5 47.5 11.021 47.5 24S36.979 47.5 24 47.5.5 36.979.5 24 11.021.5 24 .5Z"/><path stroke="#EFBC33" stroke-linecap="round" stroke-linejoin="round" stroke-width="1.5" d="M33.333 36H14.667A2.666 2.666 0 0 1 12 33.335V20.001a2.666 2.666 0 0 1 2.667-2.667h18.666A2.666 2.666 0 0 1 36 20.001v13.333a2.666 2.666 0 0 1-2.667 2.667" clip-rule="evenodd"/><path stroke="#EFBC33" stroke-linecap="round" stroke-linejoin="round" stroke-width="1.5" d="M36 24h-4.774a1.89 1.89 0 0 0-1.892 1.892v1.55c0 1.045.847 1.891 1.892 1.891h4.775M26 17.334l.5-4.834s.59-.078 1.11.443l4.39 4.39"/><path stroke="#EFBC33" stroke-linecap="round" stroke-linejoin="round" stroke-width="1.5" d="m26.667 17.332-4.391-4.39a1.33 1.33 0 0 0-1.885 0L16 17.332"/></svg>