<svg xmlns="http://www.w3.org/2000/svg" width="512" height="310"><path d="m143.813 108.625 3.519-.086c9.428 1.185 15.011 7.245 21.389 13.728l2.84 2.839c2.555 2.553 5.096 5.117 7.635 7.685 2.662 2.687 5.336 5.363 8.008 8.04a7803 7803 0 0 1 15.129 15.214 11376 11376 0 0 0 17.238 17.325A25046 25046 0 0 1 255 209c3.326-1.448 5.496-3.256 8.04-5.827l2.409-2.417 2.615-2.656 4.218-4.246q2.263-2.281 4.52-4.567a4116 4116 0 0 1 9.446-9.518q13.443-13.516 26.855-27.064 7.41-7.485 14.843-14.946 4.698-4.719 9.372-9.46c2.402-2.432 4.817-4.85 7.23-7.27l2.597-2.65c6.482-6.46 11.334-9.806 20.793-9.817 7.243.192 11.768 1.301 17.027 6.31 5.249 5.677 7.324 10.099 7.41 17.94l.086 3.52c-1.288 10.249-8.67 16.45-15.636 23.36l-3.455 3.477a2682 2682 0 0 1-9.373 9.371c-3.28 3.27-6.551 6.55-9.823 9.83a9739 9739 0 0 1-16.506 16.484 7815 7815 0 0 0-19.049 19.055 8839 8839 0 0 1-16.377 16.388 4627 4627 0 0 0-9.771 9.777 2297 2297 0 0 1-9.197 9.178 756 756 0 0 0-3.363 3.368 648 648 0 0 1-4.616 4.593l-2.602 2.597c-5.071 4.124-10.061 5.62-16.63 5.627l-3.465.06c-10.205-1.408-16.387-8.713-23.29-15.672l-3.477-3.455a2682 2682 0 0 1-9.371-9.373c-3.27-3.28-6.55-6.551-9.83-9.823a9739 9739 0 0 1-16.484-16.506 7815 7815 0 0 0-19.055-19.049 8839 8839 0 0 1-16.388-16.377 4627 4627 0 0 0-9.777-9.771 2297 2297 0 0 1-9.178-9.197 756 756 0 0 0-3.368-3.363 648 648 0 0 1-4.593-4.616l-2.597-2.602c-5.798-7.13-6.087-14.786-5.19-23.693 1.697-6.662 6.455-11.18 12-15 3.978-2.002 7.38-2.326 11.813-2.375"/></svg>