<?xml version="1.0" encoding="UTF-8"?>
<svg version="1.1" xmlns="http://www.w3.org/2000/svg" width="512" height="310">
<path d="M0 0 C1.74216797 -0.04253906 1.74216797 -0.04253906 3.51953125 -0.0859375 C12.94761905 1.09884883 18.53093311 7.15878285 24.90820312 13.64160156 C25.85432369 14.58885233 26.80132971 15.5352194 27.74914551 16.48077393 C30.30307653 19.03356362 32.84453928 21.59844097 35.38384438 24.16576862 C38.04584078 26.85287621 40.71927174 29.52855928 43.39147949 32.20550537 C48.44252093 37.26894813 53.48328443 42.34249461 58.52038145 47.41980529 C64.25857586 53.20280614 70.0082175 58.97436836 75.75882053 64.74502611 C87.58111038 76.60905581 99.38903446 88.48727635 111.1875 100.375 C114.513716 98.92682068 116.68337658 97.11875774 119.22798157 94.54811096 C120.02270874 93.75035248 120.81743591 92.95259399 121.63624573 92.13066101 C122.49918747 91.25424454 123.36212921 90.37782806 124.2512207 89.47485352 C125.65720309 88.05945659 127.06318767 86.64406184 128.46925485 85.22874916 C129.97804492 83.70819335 131.48436433 82.18522681 132.99007607 80.661623 C136.13222784 77.48283879 139.28310288 74.31279951 142.43559265 71.14427185 C151.39811128 62.1334878 160.34884635 53.1110529 169.29077148 44.07983398 C174.23091407 39.0905145 179.17828113 34.10847168 184.13343114 29.13405555 C187.26587782 25.98855638 190.38911122 22.83427519 193.50574267 19.67310917 C195.90760676 17.2421781 198.32260011 14.82442176 200.7355957 12.40454102 C201.59246475 11.53014877 202.4493338 10.65575653 203.33216858 9.75486755 C209.81451219 3.29357526 214.66623203 -0.05186022 224.125 -0.0625 C231.36803756 0.12931773 235.89346949 1.23813993 241.15234375 6.24609375 C246.40136563 11.92448347 248.47604473 16.34600727 248.5625 24.1875 C248.59085937 25.34894531 248.61921875 26.51039063 248.6484375 27.70703125 C247.36050347 37.95593 239.97788331 44.15699504 233.01245117 51.06762695 C231.8598431 52.22566178 230.70808625 53.38454438 229.55711365 54.54420471 C226.44230652 57.67718007 223.31506046 60.797451 220.18481231 63.91498971 C216.90425455 67.18538856 213.63350346 70.46557203 210.36116028 73.7441864 C204.86635491 79.24625871 199.3631927 84.73986654 193.85522461 90.22875977 C187.49361002 96.56859675 181.14654798 102.92272951 174.80683154 109.28445846 C169.35502867 114.75442948 163.89544907 120.21654661 158.42932683 125.67220849 C155.16821539 128.92709423 151.90984214 132.18459756 148.65846825 135.44921303 C145.60178691 138.51747309 142.53543967 141.57573694 139.46145058 144.62665367 C138.33695816 145.74587034 137.21583111 146.8684803 136.09840393 147.99475098 C134.56872905 149.53540925 133.02717392 151.06313867 131.48210144 152.58833313 C130.62357669 153.44534978 129.76505194 154.30236643 128.88051128 155.18535328 C123.80945598 159.30855161 118.81921623 160.80511056 112.25 160.8125 C111.10660156 160.83183594 109.96320313 160.85117187 108.78515625 160.87109375 C98.58001346 159.46386993 92.39897253 152.15879909 85.49487305 145.19995117 C84.33683822 144.0473431 83.17795562 142.89558625 82.01829529 141.74461365 C78.88531993 138.62980652 75.765049 135.50256046 72.64751029 132.37231231 C69.37711144 129.09175455 66.09692797 125.82100346 62.8183136 122.54866028 C57.31624129 117.05385491 51.82263346 111.5506927 46.33374023 106.04272461 C39.99390325 99.68111002 33.63977049 93.33404798 27.27804154 86.99433154 C21.80807052 81.54252867 16.34595339 76.08294907 10.89029151 70.61682683 C7.63540577 67.35571539 4.37790244 64.09734214 1.11328697 60.84596825 C-1.95497309 57.78928691 -5.01323694 54.72293967 -8.06415367 51.64895058 C-9.18337034 50.52445816 -10.3059803 49.40333111 -11.43225098 48.28590393 C-12.97290925 46.75622905 -14.50063867 45.21467392 -16.02583313 43.66960144 C-16.88284978 42.81107669 -17.73986643 41.95255194 -18.62285328 41.06801128 C-24.42009939 33.93807154 -24.70933683 26.28151749 -23.8125 17.375 C-22.11507912 10.71342373 -17.35710397 6.19530441 -11.8125 2.375 C-7.83477325 0.37278855 -4.43222943 0.04886692 0 0 Z " fill="#000000" transform="translate(143.8125,108.625)"/>
</svg>
